# xmcd
#
# Track frame offsets: 
#        150
#        13464
#        40477
#        56779
#        73263
#        97006
#        113994
#        141393
#
# Disc length: 2061 seconds
#
# Revision: 0
# Processed by: cddbd v1.5.2PL0 Copyright (c) Steve Scherf et al.
# Submitted via: ExactAudioCopy v1.3
#
DISCID=82080b08
DTITLE=Freddie Nystrom Band - Nya Vagar
DYEAR=2019
DGENRE=Blues
TTITLE0=Upp Och Ner
TTITLE1=Nio Och En Halv Dag
TTITLE2=Lat Mig Va
TTITLE3=En Lycklig Man
TTITLE4=Inte Hel Utan Dig
TTITLE5=Innan Dagen Tar Slut
TTITLE6=Huvudet I Vaggen
TTITLE7=Tittut
EXTD=
EXTT0=
EXTT1=
EXTT2=
EXTT3=
EXTT4=
EXTT5=
EXTT6=
EXTT7=
PLAYORDER=
